<svg width="26" height="25" viewBox="0 0 26 25" fill="none" xmlns="http://www.w3.org/2000/svg">
<g clip-path="url(#clip0_72_119)">
<path d="M9.47689 22.25H8.12509C7.98926 22.25 7.85561 22.2185 7.73636 22.1585C7.61711 22.0984 7.51607 22.0118 7.44247 21.9064C7.36887 21.801 7.32507 21.6803 7.31507 21.5552C7.30506 21.4302 7.32918 21.3048 7.38521 21.1906L10.6586 14.5227L5.74345 14.4219L3.95087 16.4267C3.60911 16.8233 3.33642 17 2.64071 17H1.73071C1.58663 17.0043 1.44356 16.9764 1.31361 16.9188C1.18367 16.8612 1.07068 16.7755 0.984229 16.6691C0.86337 16.5186 0.744542 16.2636 0.860323 15.8998L1.86681 12.5717C1.87442 12.5469 1.88357 12.522 1.89372 12.4977C1.89423 12.4953 1.89423 12.4929 1.89372 12.4906C1.88323 12.4663 1.87425 12.4414 1.86681 12.4161L0.859307 9.06687C0.750128 8.71016 0.869463 8.46078 0.989307 8.31406C1.06978 8.21549 1.17419 8.13573 1.29414 8.08118C1.41409 8.02664 1.54623 7.99883 1.67993 8H2.64071C3.16021 8 3.66446 8.21516 3.96103 8.5625L5.71653 10.5336L10.6586 10.4661L7.38622 3.80984C7.33012 3.69568 7.30591 3.57036 7.31581 3.44533C7.32571 3.3203 7.3694 3.19956 7.44289 3.09414C7.51639 2.98872 7.61733 2.90198 7.73651 2.84186C7.85568 2.78175 7.98928 2.75016 8.12509 2.75H9.49161C9.68226 2.75354 9.86959 2.79667 10.0397 2.8762C10.2098 2.95572 10.3583 3.0696 10.4742 3.20937L16.8244 10.3344L19.7581 10.2631C19.9729 10.2523 20.568 10.2486 20.7056 10.2486C23.5118 10.25 25.1876 11.0909 25.1876 12.5C25.1876 12.9434 24.9956 13.7656 23.7114 14.2887C22.9532 14.5981 21.9417 14.7547 20.7046 14.7547C20.5685 14.7547 19.9749 14.7509 19.757 14.7402L16.8239 14.668L10.458 21.793C10.342 21.9321 10.1936 22.0454 10.0238 22.1246C9.85397 22.2037 9.66706 22.2465 9.47689 22.25Z" fill="#1262AE"/>
</g>
<defs>
<clipPath id="clip0_72_119">
<rect width="26" height="24" fill="white" transform="translate(6.10352e-05 0.5)"/>
</clipPath>
</defs>
</svg>
