<svg width="25" height="25" viewBox="0 0 25 25" fill="none" xmlns="http://www.w3.org/2000/svg">
<g clip-path="url(#clip0_72_168)">
<path d="M12.5 22.8034C9.76739 22.8034 7.14667 21.7179 5.2144 19.7856C3.28213 17.8533 2.19659 15.2326 2.19659 12.5C2.19659 9.76733 3.28213 7.14661 5.2144 5.21434C7.14667 3.28207 9.76739 2.19653 12.5 2.19653C15.2327 2.19653 17.8534 3.28207 19.7857 5.21434C21.7179 7.14661 22.8035 9.76733 22.8035 12.5C22.8035 15.2326 21.7179 17.8533 19.7857 19.7856C17.8534 21.7179 15.2327 22.8034 12.5 22.8034ZM12.5 24.2753C15.623 24.2753 18.6182 23.0347 20.8265 20.8264C23.0348 18.6181 24.2754 15.623 24.2754 12.5C24.2754 9.37695 23.0348 6.38184 20.8265 4.17353C18.6182 1.96522 15.623 0.724609 12.5 0.724609C9.37701 0.724609 6.3819 1.96522 4.17359 4.17353C1.96529 6.38184 0.72467 9.37695 0.72467 12.5C0.72467 15.623 1.96529 18.6181 4.17359 20.8264C6.3819 23.0347 9.37701 24.2753 12.5 24.2753Z" fill="#1262AF"/>
<path d="M9.87143 7.49983C10.0103 7.42832 10.1662 7.39651 10.3219 7.4079C10.4777 7.41928 10.6273 7.47341 10.7543 7.56434L16.6967 11.8089C16.8067 11.8874 16.8964 11.9911 16.9583 12.1113C17.0202 12.2315 17.0525 12.3647 17.0525 12.4999C17.0525 12.6351 17.0202 12.7683 16.9583 12.8885C16.8964 13.0087 16.8067 13.1124 16.6967 13.1909L10.7543 17.4355C10.6274 17.5263 10.4778 17.5804 10.3221 17.5918C10.1664 17.6032 10.0106 17.5714 9.87183 17.5C9.73302 17.4286 9.6166 17.3203 9.53535 17.187C9.45411 17.0537 9.41119 16.9006 9.41132 16.7445V8.25536C9.41115 8.0993 9.45401 7.94621 9.53518 7.81292C9.61635 7.67963 9.7327 7.5713 9.87143 7.49983Z" fill="#1262AF"/>
</g>
<defs>
<clipPath id="clip0_72_168">
<rect width="25" height="25" fill="white"/>
</clipPath>
</defs>
</svg>
